<svg aria-hidden="true" style="width:0;height:0;position:absolute;overflow:hidden" xmlns="http://www.w3.org/2000/svg"><defs><symbol id="icon-bin" viewBox="0 0 32 32"><path d="M4 10v20c0 1.1.9 2 2 2h18c1.1 0 2-.9 2-2V10H4zm6 18H8V14h2v14zm4 0h-2V14h2v14zm4 0h-2V14h2v14zm4 0h-2V14h2v14zM26.5 4H20V1.5c0-.825-.675-1.5-1.5-1.5h-7c-.825 0-1.5.675-1.5 1.5V4H3.5C2.675 4 2 4.675 2 5.5V8h26V5.5c0-.825-.675-1.5-1.5-1.5zM18 4h-6V2.025h6V4z"/></symbol><symbol id="icon-box-add" viewBox="0 0 32 32"><path d="M26 2H6L0 8v21a1 1 0 0 0 1 1h30a1 1 0 0 0 1-1V8l-6-6zM16 26 6 18h6v-6h8v6h6l-10 8zM4.828 6l2-2h18.343l2 2H4.828z"/></symbol><symbol id="icon-close" viewBox="0 0 32 32"><path d="m17.88 16 5.733-5.72a1.339 1.339 0 0 0-1.894-1.894l-5.72 5.733-5.72-5.733a1.339 1.339 0 0 0-1.894 1.894L14.118 16l-5.733 5.72a1.333 1.333 0 0 0 0 1.894 1.333 1.333 0 0 0 1.894 0l5.72-5.733 5.72 5.733a1.333 1.333 0 0 0 1.894 0 1.333 1.333 0 0 0 0-1.894z"/></symbol></defs></svg>